# xmcd
#
# Track frame offsets:
#	182
#	17080
#	29997
#	50182
#	63412
#	75607
#	92750
#	119587
#	140300
#	160785
#	176375
#	192015
#	213417
#	230315
#
# Disc length: 3308 seconds
#
# Revision: 0
# Processed by: cddbd v1.5PL3 Copyright (c) Steve Scherf et al.
# Submitted via: audiograbber 1.83.01
#
DISCID=bf0cea0e
DTITLE=Ahmet Kaya - Aglama Bebegim
DYEAR=1900
DGENRE=
TTITLE0=Aglama Bebegim
TTITLE1=Kara Yazi
TTITLE2=Suskun
TTITLE3=Geçmiyor Günler
TTITLE4=Hasretinden Prangalar Eskittim
TTITLE5=Kiz Kaçiran
TTITLE6=Sahin Gibi
TTITLE7=Ayni Daldaydik
TTITLE8=Maviye çalar Gözlerin
TTITLE9=Birak Beni
TTITLE10=Hikayemiz
TTITLE11=Karanlikta
TTITLE12=Kurtulus Savasi Destani
TTITLE13=Ugurlar Ola
EXTD=
EXTT0=
EXTT1=
EXTT2=
EXTT3=
EXTT4=
EXTT5=
EXTT6=
EXTT7=
EXTT8=
EXTT9=
EXTT10=
EXTT11=
EXTT12=
EXTT13=
PLAYORDER=
